<?xml version="1.0" encoding="UTF-8" standalone="no"?>
<svg
   xmlns:dc="http://purl.org/dc/elements/1.1/"
   xmlns:cc="http://creativecommons.org/ns#"
   xmlns:rdf="http://www.w3.org/1999/02/22-rdf-syntax-ns#"
   xmlns:svg="http://www.w3.org/2000/svg"
   xmlns="http://www.w3.org/2000/svg"
   xmlns:sodipodi="http://sodipodi.sourceforge.net/DTD/sodipodi-0.dtd"
   xmlns:inkscape="http://www.inkscape.org/namespaces/inkscape"
   version="1.1"
   x="0px"
   y="0px"
   viewBox="0 0 1000 1000"
   enable-background="new 0 0 1000 1000"
   xml:space="preserve"
   id="svg8"
   sodipodi:docname="clock.svg"
   inkscape:version="1.0.2 (e86c870879, 2021-01-15)"><defs
   id="defs12" /><sodipodi:namedview
   pagecolor="#ffffff"
   bordercolor="#666666"
   borderopacity="1"
   objecttolerance="10"
   gridtolerance="10"
   guidetolerance="10"
   inkscape:pageopacity="0"
   inkscape:pageshadow="2"
   inkscape:window-width="2560"
   inkscape:window-height="1004"
   id="namedview10"
   showgrid="false"
   inkscape:zoom="0.715"
   inkscape:cx="500"
   inkscape:cy="500"
   inkscape:window-x="1366"
   inkscape:window-y="0"
   inkscape:window-maximized="1"
   inkscape:current-layer="svg8" />
<metadata
   id="metadata2"> Svg Vector Icons : http://www.onlinewebfonts.com/icon <rdf:RDF><cc:Work
     rdf:about=""><dc:format>image/svg+xml</dc:format><dc:type
       rdf:resource="http://purl.org/dc/dcmitype/StillImage" /></cc:Work></rdf:RDF></metadata>
<g
   id="g6"
   style="fill:#ffffff"><path
     d="M500,10C229.8,10,10,229.8,10,500c0,270.2,219.8,490,490,490c270.2,0,490-219.8,490-490C990,229.8,770.2,10,500,10L500,10z M500,906.3C276,906.3,93.7,724,93.7,500C93.7,276,276,93.7,500,93.7C724,93.7,906.3,276,906.3,500C906.3,724,724,906.3,500,906.3L500,906.3z M325.3,500c-19.4,0-35.1,15.6-35.1,35s15.7,35,35.1,35h210c19.4,0,35-15.6,35-35V255.1c0-19.4-15.6-35.1-35-35.1c-19.4,0-35,15.7-35,35.1V500L325.3,500L325.3,500z"
     id="path4"
     style="fill:#ffffff" /></g>
</svg>
